<svg xmlns="http://www.w3.org/2000/svg" viewBox="0 0 410 404"><path fill="#41D1FF" d="M399.641 59.524L215.643 388.545c-3.3 5.892-11.788 5.892-15.088 0L10.36 59.524c-3.643-6.462 1.787-14.382 8.962-13.113l184.27 32.553a8.493 8.493 0 0 0 2.957 0l184.13-32.526c7.176-1.269 12.605 6.651 8.962 13.086Z"/><path fill="#BD34FE" d="M292.965.013 156.412 26.754a4.253 4.253 0 0 0-3.434 3.51L144.57 83.49a4.253 4.253 0 0 0 5.213 4.807l38.01-8.822a4.253 4.253 0 0 1 5.11 5.293l-11.29 39.26a4.253 4.253 0 0 0 5.647 5.119l23.476-9.226a4.253 4.253 0 0 1 5.57 5.4l-17.94 49.545c-1.205 3.327 3.227 6.05 5.863 3.598l1.76-1.636 111.259-222.06c1.863-3.717-1.363-7.987-5.48-7.182Z"/><path fill="#FFEA83" d="M314.776.103 173.52 27.773a4.253 4.253 0 0 0-3.414 3.204l-8.52 45.617a4.253 4.253 0 0 0 5.055 4.91l41.97-8.806a4.253 4.253 0 0 1 5.133 5.248l-12.268 42.514a4.253 4.253 0 0 0 5.536 5.188l26.022-9.596a4.253 4.253 0 0 1 5.605 5.356l-19.393 53.684c-1.214 3.36 3.291 6.087 5.933 3.59L321.08 7.287c1.875-3.73-1.387-8.008-5.509-7.184Z"/></svg>
